<svg width="180" height="48" viewBox="0 0 180 48" fill="none" xmlns="http://www.w3.org/2000/svg">
<path d="M167.782 47.8721C163.771 47.8721 160.486 46.9547 157.926 45.1201C155.409 43.2427 154.001 40.7041 153.702 37.5041H158.31C158.523 39.4667 159.441 41.0667 161.062 42.3041C162.726 43.4987 164.945 44.0961 167.718 44.0961C170.15 44.0961 172.049 43.5201 173.414 42.3681C174.822 41.2161 175.526 39.7867 175.526 38.0801C175.526 36.8854 175.142 35.9041 174.374 35.1361C173.606 34.3681 172.625 33.7707 171.43 33.3441C170.278 32.8747 168.699 32.3841 166.694 31.8721C164.091 31.1894 161.979 30.5067 160.358 29.8241C158.737 29.1414 157.35 28.1387 156.198 26.8161C155.089 25.4507 154.534 23.6374 154.534 21.3761C154.534 19.6694 155.046 18.0907 156.07 16.6401C157.094 15.1894 158.545 14.0374 160.422 13.1841C162.299 12.3307 164.433 11.9041 166.822 11.9041C170.577 11.9041 173.606 12.8641 175.91 14.7841C178.214 16.6614 179.451 19.2641 179.622 22.5921H175.142C175.014 20.5441 174.203 18.9014 172.71 17.6641C171.259 16.3841 169.254 15.7441 166.694 15.7441C164.433 15.7441 162.598 16.2774 161.19 17.3441C159.782 18.4107 159.078 19.7334 159.078 21.3121C159.078 22.6774 159.483 23.8081 160.294 24.7041C161.147 25.5574 162.193 26.2401 163.43 26.7521C164.667 27.2214 166.331 27.7547 168.422 28.3521C170.939 29.0347 172.945 29.6961 174.438 30.3361C175.931 30.9761 177.211 31.9147 178.278 33.1521C179.345 34.3894 179.899 36.0321 179.942 38.0801C179.942 39.9574 179.43 41.6427 178.406 43.1361C177.382 44.5867 175.953 45.7387 174.118 46.5921C172.283 47.4454 170.171 47.8721 167.782 47.8721Z" fill="black"/>
<path d="M132.984 47.8721C129.698 47.8721 126.733 47.1467 124.088 45.6961C121.485 44.2027 119.416 42.1121 117.88 39.4241C116.386 36.6934 115.64 33.5147 115.64 29.8881C115.64 26.2614 116.408 23.1041 117.944 20.4161C119.48 17.6854 121.57 15.5947 124.216 14.1441C126.861 12.6507 129.826 11.9041 133.112 11.9041C136.397 11.9041 139.362 12.6507 142.008 14.1441C144.696 15.5947 146.786 17.6854 148.28 20.4161C149.816 23.1041 150.584 26.2614 150.584 29.8881C150.584 33.4721 149.816 36.6294 148.28 39.3601C146.744 42.0907 144.632 44.2027 141.944 45.6961C139.256 47.1467 136.269 47.8721 132.984 47.8721ZM132.984 43.9681C135.288 43.9681 137.421 43.4561 139.384 42.4321C141.346 41.3654 142.925 39.7867 144.12 37.6961C145.357 35.5627 145.976 32.9601 145.976 29.8881C145.976 26.8161 145.378 24.2347 144.184 22.1441C142.989 20.0107 141.41 18.4321 139.448 17.4081C137.485 16.3414 135.352 15.8081 133.048 15.8081C130.744 15.8081 128.61 16.3414 126.648 17.4081C124.685 18.4321 123.106 20.0107 121.912 22.1441C120.76 24.2347 120.184 26.8161 120.184 29.8881C120.184 32.9601 120.76 35.5627 121.912 37.6961C123.106 39.7867 124.664 41.3654 126.584 42.4321C128.546 43.4561 130.68 43.9681 132.984 43.9681Z" fill="black"/>
<path d="M76.452 29.824C76.452 26.24 77.1774 23.104 78.628 20.416C80.0787 17.6853 82.0627 15.5947 84.58 14.144C87.14 12.6507 90.02 11.904 93.22 11.904C96.292 11.904 99.0654 12.6507 101.54 14.144C104.015 15.6373 105.828 17.5787 106.98 19.968V0H111.46V47.36H106.98V39.552C105.913 41.984 104.164 43.9893 101.732 45.568C99.3 47.104 96.4414 47.872 93.156 47.872C89.956 47.872 87.076 47.1253 84.516 45.632C81.9987 44.1387 80.0147 42.0267 78.564 39.296C77.156 36.5653 76.452 33.408 76.452 29.824ZM106.98 29.888C106.98 27.072 106.404 24.5973 105.252 22.464C104.1 20.3307 102.521 18.688 100.516 17.536C98.5534 16.384 96.3774 15.808 93.988 15.808C91.5134 15.808 89.2947 16.3627 87.332 17.472C85.3694 18.5813 83.812 20.2027 82.66 22.336C81.5507 24.4267 80.996 26.9227 80.996 29.824C80.996 32.6827 81.5507 35.2 82.66 37.376C83.812 39.5093 85.3694 41.152 87.332 42.304C89.2947 43.4133 91.5134 43.968 93.988 43.968C96.3774 43.968 98.5534 43.392 100.516 42.24C102.521 41.088 104.1 39.4453 105.252 37.312C106.404 35.1787 106.98 32.704 106.98 29.888Z" fill="black"/>
<path d="M54.7335 47.8721C51.4482 47.8721 48.4829 47.1467 45.8375 45.6961C43.2349 44.2027 41.1655 42.1121 39.6295 39.4241C38.1362 36.6934 37.3895 33.5147 37.3895 29.8881C37.3895 26.2614 38.1575 23.1041 39.6935 20.4161C41.2295 17.6854 43.3202 15.5947 45.9655 14.1441C48.6109 12.6507 51.5762 11.9041 54.8615 11.9041C58.1469 11.9041 61.1122 12.6507 63.7575 14.1441C66.4455 15.5947 68.5362 17.6854 70.0295 20.4161C71.5655 23.1041 72.3335 26.2614 72.3335 29.8881C72.3335 33.4721 71.5655 36.6294 70.0295 39.3601C68.4935 42.0907 66.3815 44.2027 63.6935 45.6961C61.0055 47.1467 58.0189 47.8721 54.7335 47.8721ZM54.7335 43.9681C57.0375 43.9681 59.1709 43.4561 61.1335 42.4321C63.0962 41.3654 64.6749 39.7867 65.8695 37.6961C67.1069 35.5627 67.7255 32.9601 67.7255 29.8881C67.7255 26.8161 67.1282 24.2347 65.9335 22.1441C64.7389 20.0107 63.1602 18.4321 61.1975 17.4081C59.2349 16.3414 57.1015 15.8081 54.7975 15.8081C52.4935 15.8081 50.3602 16.3414 48.3975 17.4081C46.4349 18.4321 44.8562 20.0107 43.6615 22.1441C42.5095 24.2347 41.9335 26.8161 41.9335 29.8881C41.9335 32.9601 42.5095 35.5627 43.6615 37.6961C44.8562 39.7867 46.4135 41.3654 48.3335 42.4321C50.2962 43.4561 52.4295 43.9681 54.7335 43.9681Z" fill="black"/>
<path d="M61.215 21.8102C61.8019 21.6146 62.4493 21.7674 62.8869 22.2048C63.3244 22.6423 63.4771 23.2897 63.2814 23.8766L60.3351 32.7155C60.0945 33.4373 59.6895 34.0935 59.1515 34.6315C58.6808 35.1023 58.1195 35.4714 57.5031 35.7175L57.2355 35.8151L48.3966 38.7614C47.8096 38.9571 47.1623 38.8044 46.7248 38.3669C46.2874 37.9294 46.1346 37.2819 46.3302 36.695L49.2775 27.8561C49.5181 27.1346 49.9233 26.4789 50.4611 25.9411C50.9989 25.4033 51.6546 24.9981 52.3761 24.7575L61.215 21.8102ZM53.4103 27.8561C53.1698 27.9363 52.9509 28.0724 52.7716 28.2516C52.5924 28.4309 52.4563 28.6488 52.3761 28.8893L50.463 34.6286L56.2023 32.7155L56.3781 32.6452C56.5496 32.565 56.7064 32.4556 56.841 32.321C57.0203 32.1417 57.1553 31.9229 57.2355 31.6823L59.1486 25.9431L53.4103 27.8561Z" fill="black"/>
<path d="M33.216 2.62399V47.36H28.736V26.432H4.48V47.36H0V2.62399H4.48V22.72H28.736V2.62399H33.216Z" fill="black"/>
</svg>
