<svg width="96" height="96" viewBox="0 0 96 96" fill="none" xmlns="http://www.w3.org/2000/svg">
<path d="M0 17C0 7.61116 7.61116 0 17 0H79C88.3888 0 96 7.61116 96 17V79C96 88.3888 88.3888 96 79 96H17C7.61116 96 0 88.3888 0 79V17Z" fill="#F1F1F1"/>
<path d="M0 17C0 7.61116 7.61116 0 17 0H79C88.3888 0 96 7.61116 96 17V79C96 88.3888 88.3888 96 79 96H17C7.61116 96 0 88.3888 0 79V17Z" fill="#F1F1F1"/>
<path d="M70.2391 17.8286V79.1808H64.0951V50.4795H30.8297V79.1808H24.6857V17.8286H30.8297V45.3888H64.0951V17.8286H70.2391Z" fill="#1A1A1A"/>
<path d="M30.8297 17.8286H24.6857V79.1808H30.8297V50.4795H64.0951V79.1808H70.2391V17.8286H64.0951V45.3888H30.8297V17.8286ZM71.8848 80.8259H62.4496V52.125H32.475V80.8259H23.0397V16.1826H32.475V43.7438H62.4496V16.1826H71.8848V80.8259Z" fill="#1A1A1A"/>
<path d="M72.6857 48.0001L58.2857 56.3139V39.6862L72.6857 48.0001Z" fill="#1A1A1A"/>
<path d="M55.5429 61.0647V34.9353L78.1714 48L55.5429 61.0647ZM58.2857 39.6862V56.3139L72.6857 48.0001L58.2857 39.6862Z" fill="#F1F1F1"/>
<path d="M54.8571 43.7417H58.9714V52.1212H54.8571V43.7417Z" fill="#1A1A1A"/>
</svg>
