<svg width="195" height="50" viewBox="0 0 195 50" fill="none" xmlns="http://www.w3.org/2000/svg">
<path d="M181.482 48.5722C177.472 48.5722 174.186 47.6549 171.626 45.8202C169.109 43.9429 167.701 41.4042 167.402 38.2042H172.01C172.224 40.1669 173.141 41.7669 174.762 43.0042C176.426 44.1989 178.645 44.7962 181.418 44.7962C183.85 44.7962 185.749 44.2202 187.114 43.0682C188.522 41.9162 189.226 40.4869 189.226 38.7802C189.226 37.5855 188.842 36.6042 188.074 35.8362C187.306 35.0682 186.325 34.4709 185.13 34.0442C183.978 33.5749 182.4 33.0842 180.394 32.5722C177.792 31.8895 175.68 31.2069 174.058 30.5242C172.437 29.8415 171.05 28.8389 169.898 27.5162C168.789 26.1509 168.234 24.3375 168.234 22.0762C168.234 20.3695 168.746 18.7909 169.77 17.3402C170.794 15.8895 172.245 14.7375 174.122 13.8842C176 13.0309 178.133 12.6042 180.522 12.6042C184.277 12.6042 187.306 13.5642 189.61 15.4842C191.914 17.3615 193.152 19.9642 193.322 23.2922H188.842C188.714 21.2442 187.904 19.6015 186.41 18.3642C184.96 17.0842 182.954 16.4442 180.394 16.4442C178.133 16.4442 176.298 16.9775 174.89 18.0442C173.482 19.1109 172.778 20.4335 172.778 22.0122C172.778 23.3775 173.184 24.5082 173.994 25.4042C174.848 26.2575 175.893 26.9402 177.13 27.4522C178.368 27.9215 180.032 28.4549 182.122 29.0522C184.64 29.7349 186.645 30.3962 188.138 31.0362C189.632 31.6762 190.912 32.6149 191.978 33.8522C193.045 35.0895 193.6 36.7322 193.642 38.7802C193.642 40.6575 193.13 42.3429 192.106 43.8362C191.082 45.2869 189.653 46.4389 187.818 47.2922C185.984 48.1455 183.872 48.5722 181.482 48.5722Z" fill="black"/>
<path d="M172.639 37.5046L172.706 38.1286C172.897 39.8887 173.708 41.3143 175.175 42.4382C176.684 43.5199 178.743 44.0963 181.418 44.0964L181.418 44.7962L180.905 44.7888C178.37 44.7188 176.322 44.1241 174.762 43.0042C173.141 41.7669 172.224 40.1669 172.01 38.2042H167.402C167.701 41.4042 169.109 43.9429 171.626 45.8202C174.026 47.5403 177.064 48.4538 180.739 48.5612L181.482 48.5722C183.722 48.5722 185.718 48.1969 187.471 47.447L187.818 47.2922C189.653 46.4389 191.082 45.2869 192.106 43.8362L192.678 44.2399C191.574 45.8036 190.043 47.0289 188.113 47.9265C186.171 48.8299 183.955 49.2721 181.482 49.2722C177.366 49.2722 173.926 48.3298 171.219 46.3893L171.208 46.3815C168.527 44.3826 167.022 41.6613 166.705 38.2692L166.634 37.5046H172.639ZM193.642 38.7802C193.602 36.86 193.112 35.2961 192.172 34.0886L191.978 33.8522C190.978 32.6922 189.791 31.7948 188.416 31.1599L188.138 31.0362C186.831 30.4762 185.133 29.9 183.042 29.3073L182.122 29.0522C180.032 28.4549 178.368 27.9215 177.13 27.4522C175.893 26.9402 174.848 26.2575 173.994 25.4042C173.234 24.5642 172.831 23.5178 172.783 22.2653L172.778 22.0122C172.778 20.5321 173.397 19.2768 174.635 18.2468L174.89 18.0442C176.298 16.9775 178.133 16.4442 180.394 16.4442L180.868 16.4518C183.203 16.5269 185.05 17.1644 186.41 18.3642C187.81 19.5242 188.61 21.0403 188.81 22.9128L188.842 23.2922H193.322C193.152 19.9642 191.914 17.3615 189.61 15.4842C187.45 13.6842 184.653 12.7284 181.218 12.6159L180.522 12.6042C178.133 12.6042 176 13.0309 174.122 13.8842L173.775 14.0475C172.065 14.8826 170.73 15.9802 169.77 17.3402L169.584 17.614C168.684 18.9888 168.234 20.4764 168.234 22.0762L168.241 22.4948C168.306 24.5624 168.858 26.2362 169.898 27.5162C171.05 28.8389 172.437 29.8415 174.058 30.5242C175.68 31.2069 177.792 31.8895 180.394 32.5722C182.4 33.0842 183.978 33.5749 185.13 34.0442C186.325 34.4709 187.306 35.0682 188.074 35.8362C188.842 36.6042 189.226 37.5855 189.226 38.7802L189.218 39.0974C189.135 40.6647 188.434 41.9883 187.114 43.0682C185.749 44.2202 183.85 44.7962 181.418 44.7962L181.418 44.0964C183.744 44.0964 185.463 43.5453 186.663 42.5329L186.671 42.5261C187.929 41.497 188.526 40.2613 188.526 38.78C188.526 37.7507 188.202 36.9537 187.579 36.3307C186.896 35.6475 186.008 35.1014 184.894 34.7038L184.881 34.6979L184.866 34.6921C183.757 34.2401 182.212 33.7592 180.221 33.2507L180.217 33.2497C177.597 32.5626 175.45 31.8699 173.787 31.1696C172.068 30.4456 170.592 29.3797 169.37 27.9763L169.362 27.9665L169.355 27.9577C168.119 26.4357 167.534 24.4514 167.534 22.0759C167.534 20.2187 168.094 18.4998 169.198 16.9362C170.305 15.3687 171.861 14.1431 173.833 13.2468C175.814 12.3461 178.049 11.904 180.522 11.904C184.395 11.904 187.594 12.8954 190.053 14.9411L190.281 15.1335C192.61 17.1358 193.848 19.8669 194.021 23.2565L194.059 23.9919H188.184L188.143 23.3356C188.027 21.468 187.299 20.0092 185.964 18.903L185.955 18.8962L185.947 18.8893C184.661 17.7545 182.84 17.1443 180.394 17.1442C178.243 17.1442 176.569 17.6509 175.313 18.6022C174.056 19.5546 173.478 20.6811 173.478 22.0124C173.478 23.2211 173.831 24.1723 174.502 24.9206C175.279 25.6947 176.238 26.3237 177.39 26.8015C178.598 27.2591 180.233 27.7847 182.305 28.3766C184.837 29.0634 186.878 29.7351 188.414 30.3932C190.006 31.0754 191.373 32.0777 192.509 33.3952C193.706 34.7844 194.296 36.5972 194.342 38.7653L194.343 38.7731V38.78C194.343 40.7931 193.79 42.6178 192.683 44.2321L192.678 44.2399L192.106 43.8362C193.066 42.4361 193.577 40.8672 193.637 39.1296L193.642 38.7802Z" fill="black"/>
<path d="M143.684 48.5722C140.398 48.5722 137.433 47.8469 134.788 46.3962C132.185 44.9029 130.116 42.8122 128.58 40.1242C127.086 37.3935 126.34 34.2149 126.34 30.5882C126.34 26.9615 127.108 23.8042 128.644 21.1162C130.18 18.3855 132.27 16.2949 134.916 14.8442C137.561 13.3509 140.526 12.6042 143.812 12.6042C147.097 12.6042 150.062 13.3509 152.708 14.8442C155.396 16.2949 157.486 18.3855 158.98 21.1162C160.516 23.8042 161.284 26.9615 161.284 30.5882C161.284 34.1722 160.516 37.3295 158.98 40.0602C157.444 42.7909 155.332 44.9029 152.644 46.3962C149.956 47.8469 146.969 48.5722 143.684 48.5722ZM143.684 44.6682C145.988 44.6682 148.121 44.1562 150.084 43.1322C152.046 42.0655 153.625 40.4869 154.82 38.3962C156.057 36.2629 156.676 33.6602 156.676 30.5882C156.676 27.5162 156.078 24.9349 154.884 22.8442C153.689 20.7109 152.11 19.1322 150.148 18.1082C148.185 17.0415 146.052 16.5082 143.748 16.5082C141.444 16.5082 139.31 17.0415 137.348 18.1082C135.385 19.1322 133.806 20.7109 132.612 22.8442C131.46 24.9349 130.884 27.5162 130.884 30.5882C130.884 33.6602 131.46 36.2629 132.612 38.3962C133.806 40.4869 135.364 42.0655 137.284 43.1322C139.246 44.1562 141.38 44.6682 143.684 44.6682Z" fill="black"/>
<path d="M161.284 30.5882C161.284 26.9615 160.516 23.8042 158.98 21.1162C157.58 18.5564 155.655 16.5586 153.205 15.1237L152.708 14.8442C150.062 13.3509 147.097 12.6042 143.812 12.6042C140.526 12.6042 137.561 13.3509 134.916 14.8442L134.427 15.1237C132.012 16.5587 130.084 18.5561 128.644 21.1162C127.108 23.8042 126.34 26.9615 126.34 30.5882L126.349 31.2634C126.436 34.6106 127.18 37.5644 128.58 40.1242C130.116 42.8122 132.185 44.9029 134.788 46.3962C137.433 47.8469 140.398 48.5722 143.684 48.5722C146.969 48.5722 149.956 47.8469 152.644 46.3962C155.164 44.9962 157.178 43.0527 158.685 40.5651L158.98 40.0602C160.42 37.5003 161.184 34.5654 161.274 31.2556L161.284 30.5882ZM155.975 30.5886C155.975 27.6054 155.396 25.1507 154.276 23.1911L154.273 23.1862C153.138 21.1589 151.653 19.6837 149.824 18.7292L149.813 18.7233C147.957 17.7143 145.939 17.2077 143.748 17.2077C141.557 17.2077 139.538 17.7142 137.682 18.7233L137.672 18.7292C135.842 19.6837 134.358 21.1588 133.223 23.1862C132.143 25.1472 131.584 27.6038 131.584 30.5886C131.584 33.5672 132.141 36.0438 133.22 38.0485L133.436 38.4157C134.54 40.2206 135.935 41.5801 137.618 42.5163C139.474 43.4824 141.492 43.9684 143.683 43.9684L143.684 44.6682L143.254 44.6618C141.114 44.6018 139.124 44.0921 137.284 43.1322C135.364 42.0655 133.806 40.4869 132.612 38.3962C131.532 36.3962 130.958 33.9838 130.891 31.1589L130.884 30.5882C130.884 27.5162 131.46 24.9349 132.612 22.8442C133.806 20.7109 135.385 19.1322 137.348 18.1082C139.31 17.0415 141.444 16.5082 143.748 16.5082L144.178 16.5143C146.318 16.5768 148.308 17.1083 150.148 18.1082C152.11 19.1322 153.689 20.7109 154.884 22.8442C156.078 24.9349 156.676 27.5162 156.676 30.5882L156.669 31.1589C156.596 33.9837 155.98 36.3963 154.82 38.3962L154.592 38.7819C153.427 40.6821 151.924 42.1321 150.084 43.1322C148.121 44.1562 145.988 44.6682 143.684 44.6682L143.683 43.9684C145.879 43.9684 147.901 43.481 149.76 42.5114C151.594 41.5118 153.079 40.0317 154.212 38.0485L154.214 38.0446C155.376 36.0413 155.975 33.567 155.975 30.5886ZM161.983 30.5886C161.983 34.275 161.193 37.5534 159.59 40.403C157.992 43.2443 155.787 45.451 152.983 47.0085L152.976 47.0124C150.179 48.5223 147.076 49.2722 143.683 49.2722C140.291 49.2721 137.208 48.5225 134.451 47.0104L134.439 47.0036C131.725 45.4462 129.567 43.2639 127.972 40.4714L127.966 40.4597C126.408 37.6103 125.64 34.3128 125.64 30.5886C125.64 26.8612 126.43 23.5798 128.036 20.7692C129.633 17.9311 131.816 15.7455 134.579 14.2302C137.336 12.6757 140.419 11.904 143.811 11.904C147.202 11.904 150.283 12.6755 153.039 14.2282C155.845 15.7424 158.031 17.9277 159.588 20.7692L159.879 21.3015C161.289 23.9915 161.983 27.0941 161.983 30.5886Z" fill="black"/>
<path d="M83.1522 30.5242C83.1522 26.9402 83.8775 23.8042 85.3282 21.1162C86.7789 18.3855 88.7629 16.2949 91.2802 14.8442C93.8402 13.3509 96.7202 12.6042 99.9202 12.6042C102.992 12.6042 105.766 13.3509 108.24 14.8442C110.715 16.3375 112.528 18.2789 113.68 20.6682V0.700195H118.16V48.0602H113.68V40.2522C112.614 42.6842 110.864 44.6895 108.432 46.2682C106 47.8042 103.142 48.5722 99.8562 48.5722C96.6562 48.5722 93.7762 47.8255 91.2162 46.3322C88.6989 44.8389 86.7149 42.7269 85.2642 39.9962C83.8562 37.2655 83.1522 34.1082 83.1522 30.5242ZM113.68 30.5882C113.68 27.7722 113.104 25.2975 111.952 23.1642C110.8 21.0309 109.222 19.3882 107.216 18.2362C105.254 17.0842 103.078 16.5082 100.688 16.5082C98.2135 16.5082 95.9949 17.0629 94.0322 18.1722C92.0695 19.2815 90.5122 20.9029 89.3602 23.0362C88.2509 25.1269 87.6962 27.6229 87.6962 30.5242C87.6962 33.3829 88.2509 35.9002 89.3602 38.0762C90.5122 40.2095 92.0695 41.8522 94.0322 43.0042C95.9949 44.1135 98.2135 44.6682 100.688 44.6682C103.078 44.6682 105.254 44.0922 107.216 42.9402C109.222 41.7882 110.8 40.1455 111.952 38.0122C113.104 35.8789 113.68 33.4042 113.68 30.5882Z" fill="black"/>
<path d="M118.16 0.700195H113.68V20.6682C112.528 18.2789 110.715 16.3375 108.24 14.8442C105.92 13.4444 103.338 12.7008 100.493 12.6133L99.9202 12.6042C96.7202 12.6042 93.8402 13.3509 91.2802 14.8442C88.7629 16.2949 86.7789 18.3855 85.3282 21.1162L85.0643 21.625C83.7892 24.1975 83.1522 27.1641 83.1522 30.5242L83.16 31.1914C83.2425 34.5013 83.9442 37.4362 85.2642 39.9962C86.7149 42.7269 88.6989 44.8389 91.2162 46.3322C93.616 47.732 96.2974 48.4759 99.2596 48.5635L99.8562 48.5722C103.142 48.5722 106 47.8042 108.432 46.2682L108.806 46.8604C106.247 48.4764 103.254 49.2724 99.8563 49.2725C96.5426 49.2725 93.5387 48.4973 90.8631 46.9365L90.8592 46.9346C88.2251 45.3719 86.1537 43.1616 84.6463 40.3242L84.6424 40.3174C83.1754 37.4723 82.452 34.2013 82.452 30.5244C82.452 26.8447 83.1973 23.5906 84.7118 20.7842C86.2198 17.9469 88.293 15.7572 90.9305 14.2373C93.6051 12.6779 96.6075 11.9044 99.9198 11.9043C103.111 11.9043 106.011 12.6818 108.601 14.2451C110.382 15.3197 111.845 16.6238 112.98 18.1582V0H118.86V48.7598H112.98V42.9102C111.908 44.4332 110.518 45.7492 108.813 46.8555L108.806 46.8604L108.432 46.2682C110.864 44.6895 112.614 42.6842 113.68 40.2522V48.0602H118.16V0.700195ZM87.6962 30.5242C87.6962 27.6229 88.2509 25.1269 89.3602 23.0362C90.5122 20.9029 92.0695 19.2815 94.0322 18.1722C95.9949 17.0629 98.2135 16.5082 100.688 16.5082L101.134 16.5146C103.349 16.5821 105.376 17.1562 107.216 18.2362C109.222 19.3882 110.8 21.0309 111.952 23.1642C113.104 25.2975 113.68 27.7722 113.68 30.5882L113.674 31.1123C113.606 33.7121 113.032 36.0123 111.952 38.0122C110.8 40.1455 109.222 41.7882 107.216 42.9402L106.846 43.1494C104.981 44.1619 102.928 44.6682 100.688 44.6682L100.688 43.9678C102.96 43.9678 105.012 43.4226 106.862 42.3369L106.867 42.333C108.754 41.2491 110.243 39.7042 111.336 37.6797C112.424 35.6639 112.98 33.3066 112.98 30.5879C112.98 27.8693 112.424 25.5128 111.336 23.4971C110.242 21.4725 108.754 19.9267 106.867 18.8428L106.862 18.8398C105.012 17.7541 102.96 17.208 100.688 17.208C98.3224 17.208 96.2243 17.7371 94.3768 18.7812C92.5376 19.8208 91.0707 21.3427 89.9764 23.3691L89.9754 23.3682C88.932 25.3366 88.3963 27.714 88.3963 30.5244C88.3964 33.2886 88.9321 35.6913 89.9813 37.752C91.0742 39.7725 92.539 41.3134 94.3768 42.3945L94.7264 42.585C96.4878 43.5034 98.4704 43.9678 100.688 43.9678L100.688 44.6682L100.227 44.6621C97.9373 44.5971 95.8723 44.0442 94.0322 43.0042C92.0695 41.8522 90.5122 40.2095 89.3602 38.0762C88.3203 36.0363 87.768 33.6964 87.703 31.0566L87.6962 30.5242Z" fill="black"/>
<path d="M59.4337 48.5722C56.1484 48.5722 53.183 47.8469 50.5377 46.3962C47.935 44.9029 45.8657 42.8122 44.3297 40.1242C42.8364 37.3935 42.0897 34.2149 42.0897 30.5882C42.0897 26.9615 42.8577 23.8042 44.3937 21.1162C45.9297 18.3855 48.0204 16.2949 50.6657 14.8442C53.311 13.3509 56.2764 12.6042 59.5617 12.6042C62.847 12.6042 65.8124 13.3509 68.4577 14.8442C71.1457 16.2949 73.2364 18.3855 74.7297 21.1162C76.2657 23.8042 77.0337 26.9615 77.0337 30.5882C77.0337 34.1722 76.2657 37.3295 74.7297 40.0602C73.1937 42.7909 71.0817 44.9029 68.3937 46.3962C65.7057 47.8469 62.719 48.5722 59.4337 48.5722ZM59.4337 44.6682C61.7377 44.6682 63.871 44.1562 65.8337 43.1322C67.7964 42.0655 69.375 40.4869 70.5697 38.3962C71.807 36.2629 72.4257 33.6602 72.4257 30.5882C72.4257 27.5162 71.8284 24.9349 70.6337 22.8442C69.439 20.7109 67.8604 19.1322 65.8977 18.1082C63.935 17.0415 61.8017 16.5082 59.4977 16.5082C57.1937 16.5082 55.0604 17.0415 53.0977 18.1082C51.135 19.1322 49.5564 20.7109 48.3617 22.8442C47.2097 24.9349 46.6337 27.5162 46.6337 30.5882C46.6337 33.6602 47.2097 36.2629 48.3617 38.3962C49.5564 40.4869 51.1137 42.0655 53.0337 43.1322C54.9964 44.1562 57.1297 44.6682 59.4337 44.6682Z" fill="black"/>
<path d="M65.9152 22.5104C66.502 22.3147 67.1495 22.4676 67.587 22.9049C68.0246 23.3424 68.1773 23.9898 67.9816 24.5768L65.0353 33.4156C64.7947 34.1374 64.3897 34.7937 63.8517 35.3317C63.381 35.8024 62.8197 36.1715 62.2032 36.4176L61.9357 36.5153L53.0968 39.4615C52.5098 39.6572 51.8625 39.5045 51.4249 39.067C50.9876 38.6295 50.8347 37.982 51.0304 37.3951L53.9777 28.5563C54.2183 27.8347 54.6234 27.1791 55.1613 26.6412C55.6991 26.1034 56.3547 25.6982 57.0763 25.4576L65.9152 22.5104ZM58.1105 28.5563C57.87 28.6365 57.6511 28.7725 57.4718 28.9518C57.2925 29.1311 57.1565 29.349 57.0763 29.5895L55.1632 35.3287L60.9025 33.4156L61.0782 33.3453C61.2497 33.2651 61.4066 33.1557 61.5411 33.0211C61.7205 32.8418 61.8555 32.623 61.9357 32.3824L63.8488 26.6432L58.1105 28.5563Z" fill="black"/>
<path d="M76.6834 30.5886C76.6834 27.0123 75.9266 23.9164 74.4256 21.2897L74.4227 21.2839C72.9612 18.6115 70.919 16.5699 68.2918 15.152L68.286 15.1491C65.6974 13.6878 62.7915 12.9538 59.5614 12.9538C56.3314 12.9538 53.4262 13.6879 50.8377 15.1491L50.8338 15.1511C48.2482 16.569 46.2043 18.6119 44.6991 21.2878L44.6971 21.2897C43.1962 23.9164 42.4393 27.0123 42.4393 30.5886C42.4394 34.1637 43.1748 37.2809 44.6336 39.9509L44.9217 40.4382C46.3945 42.8399 48.3242 44.7225 50.7118 46.0925C53.2995 47.5102 56.2041 48.2223 59.4334 48.2224C62.6644 48.2224 65.5929 47.5098 68.2254 46.0895C70.855 44.6283 72.9201 42.5632 74.4247 39.8884C75.927 37.2174 76.6834 34.121 76.6834 30.5886ZM72.076 30.5886C72.076 27.5612 71.487 25.0433 70.3299 23.0182L70.328 23.0153C69.163 20.9351 67.6321 19.4079 65.7362 18.4186L65.7303 18.4157C63.8207 17.3779 61.7453 16.8581 59.4979 16.8581C57.2504 16.8581 55.1742 17.3778 53.2645 18.4157L53.2596 18.4186C51.3636 19.4079 49.8318 20.935 48.6668 23.0153C47.5512 25.0411 46.9832 27.5603 46.9832 30.5886C46.9833 33.6139 47.5506 36.1534 48.6659 38.2224L48.8885 38.5993C50.0224 40.4526 51.4614 41.8578 53.2039 42.8259C55.1125 43.8201 57.1865 44.318 59.4334 44.3181C61.6834 44.3181 63.7611 43.8188 65.6717 42.822C67.5704 41.7888 69.1015 40.2593 70.2655 38.2224L70.2664 38.2204C71.466 36.1521 72.076 33.6137 72.076 30.5886ZM65.8045 22.1784C66.5172 21.9408 67.3036 22.126 67.8348 22.6569C68.3658 23.1882 68.5508 23.9747 68.3133 24.6872L65.367 33.5261C65.1094 34.2991 64.6758 35.0023 64.0995 35.5788C63.595 36.0832 62.9932 36.4792 62.3329 36.7429L62.3231 36.7468L62.0555 36.8444L53.2079 39.7936C52.4951 40.0313 51.7089 39.8455 51.1776 39.3141C50.6467 38.783 50.4607 37.9974 50.6981 37.2849L53.6454 28.446C53.9031 27.673 54.3377 26.9705 54.9139 26.3942C55.4902 25.818 56.1926 25.3834 56.9657 25.1257L65.8045 22.1784ZM67.3397 23.152C66.996 22.8086 66.4871 22.6889 66.0262 22.8425L57.1873 25.7897C56.5175 26.0131 55.9084 26.3891 55.409 26.8884C54.9097 27.3877 54.5328 27.9967 54.3094 28.6667L51.3622 37.5056C51.2084 37.9666 51.329 38.4762 51.6727 38.82C52.0164 39.1635 52.5251 39.2833 52.9862 39.1296L61.8153 36.1862L62.078 36.0895C62.6484 35.861 63.1686 35.5204 63.6043 35.0847C64.1037 34.5853 64.4795 33.9756 64.703 33.3054L67.6493 24.4665C67.803 24.0052 67.6834 23.4958 67.3397 23.152ZM63.7381 26.3112C63.8639 26.2693 64.0028 26.3024 64.0965 26.3962C64.1899 26.4899 64.2223 26.628 64.1805 26.7536L62.2674 32.4929C62.1701 32.7847 62.0066 33.0505 61.7889 33.2682C61.6253 33.4319 61.4343 33.5655 61.2264 33.6628C61.2205 33.6656 61.2139 33.6682 61.2079 33.6706L61.0321 33.7409C61.026 33.7433 61.0198 33.7457 61.0135 33.7477L55.2743 35.6608C55.1485 35.7028 55.0096 35.6696 54.9159 35.5759C54.8223 35.4822 54.7892 35.344 54.8309 35.2184L56.744 29.4792C56.8417 29.1862 57.0076 28.9217 57.2245 28.7048C57.4417 28.4875 57.7073 28.3219 57.9998 28.2243L63.7381 26.3112ZM58.2215 28.8884C58.0333 28.9511 57.8608 29.0578 57.7196 29.1989C57.578 29.3405 57.4707 29.512 57.4081 29.6999L55.7157 34.7751L60.7772 33.0886L60.9325 33.0261C61.0663 32.963 61.1891 32.8787 61.2938 32.7741C61.4345 32.6334 61.5403 32.4612 61.6034 32.2722L63.2948 27.196L58.2215 28.8884ZM72.7752 30.5886C72.7752 33.7071 72.1478 36.3738 70.8729 38.572C69.6487 40.7136 68.0245 42.3403 66.0008 43.4401L65.9959 43.4421C63.9812 44.4932 61.7914 45.0182 59.4334 45.0182C57.0755 45.0182 54.8866 44.4932 52.8719 43.4421L52.8641 43.4382C50.8829 42.3375 49.2807 40.7107 48.0575 38.57L48.0536 38.5622C46.8677 36.3661 46.2841 33.7032 46.284 30.5886C46.284 27.474 46.868 24.8306 48.0555 22.6755L48.0565 22.6735C49.2808 20.4873 50.9062 18.8563 52.9354 17.7975C54.9496 16.7039 57.1394 16.1579 59.4979 16.1579C61.8583 16.1579 64.0497 16.7051 66.0653 17.8005C68.0915 18.8588 69.7142 20.4874 70.9373 22.6706L71.161 23.0807C72.2428 25.1594 72.7752 27.6669 72.7752 30.5886ZM77.3836 30.5886C77.3836 34.2237 76.6044 37.442 75.035 40.2321C73.4679 43.018 71.309 45.1765 68.5633 46.7018L68.5604 46.7038C65.8175 48.1841 62.7723 48.9225 59.4334 48.9225C56.0947 48.9225 53.0703 48.1842 50.369 46.7028L50.3631 46.6999C47.7048 45.1746 45.592 43.0377 44.0262 40.2975L44.0223 40.2917C42.4967 37.5018 41.7401 34.2638 41.7401 30.5886C41.7401 26.9115 42.5186 23.6914 44.0897 20.9421C45.5584 18.3319 47.5283 16.2899 49.9969 14.8229L50.4969 14.5378C53.1981 13.0137 56.2222 12.2546 59.5614 12.2546C62.8992 12.2546 65.9225 13.013 68.6229 14.5358C71.3696 16.0182 73.5091 18.1562 75.034 20.9421L75.3192 21.4636C76.6992 24.0961 77.3836 27.1414 77.3836 30.5886Z" fill="black"/>
<path d="M33.9162 3.32419V48.0602H29.4362V27.1322H5.1802V48.0602H0.700195V3.32419H5.1802V23.4202H29.4362V3.32419H33.9162Z" fill="black"/>
<path d="M5.1802 3.32419H0.700195V48.0602H5.1802V27.1322H29.4362V48.0602H33.9162V3.32419H29.4362V23.4202H5.1802V3.32419ZM34.6162 48.7597H28.7363V27.832H5.87988V48.7597H0V2.62399H5.87988V22.7207H28.7363V2.62399H34.6162V48.7597Z" fill="black"/>
</svg>
