<svg width="96" height="96" viewBox="0 0 96 96" fill="none" xmlns="http://www.w3.org/2000/svg">
<path d="M0 23.3143C0 10.4382 10.4382 0 23.3143 0H72.6857C85.5618 0 96 10.4382 96 23.3143V72.6857C96 85.5618 85.5618 96 72.6857 96H23.3143C10.4382 96 0 85.5618 0 72.6857V23.3143Z" fill="#1A1A1A"/>
<path d="M70.2391 17.8286V79.1808H64.0951V50.4795H30.8297V79.1808H24.6857V17.8286H30.8297V45.3888H64.0951V17.8286H70.2391Z" fill="#F1F1F1"/>
<path d="M30.8297 17.8286H24.6857V79.1808H30.8297V50.4795H64.0951V79.1808H70.2391V17.8286H64.0951V45.3888H30.8297V17.8286ZM71.8848 80.8259H62.4496V52.125H32.475V80.8259H23.0397V16.1826H32.475V43.7438H62.4496V16.1826H71.8848V80.8259Z" fill="#F1F1F1"/>
</svg>
